<svg xmlns="http://www.w3.org/2000/svg" width="411.4" height="74.3" viewBox="0 0 411.4 74.3"><g fill="#878787"><path d="M25.9 18.2c4.6 0 8.9 1.7 12.1 4.4l4.5-5.3c-4.5-3.8-10.3-6.1-16.6-6.1C11.6 11.3 0 22.9 0 37.1 0 51.4 11.6 63 25.9 63c6.3 0 12.1-2.3 16.6-6.1L38 51.6c-3.3 2.8-7.5 4.4-12.1 4.4C15.4 56 7 47.5 7 37.1c0-10.4 8.4-18.9 18.9-18.9zM169 12.8h-13.9c-1.9 0-3.5 1.6-3.5 3.5V58c0 1.9 1.6 3.5 3.5 3.5H169c13.4 0 24.4-10.9 24.4-24.4 0-13.4-11-24.3-24.4-24.3zm0 41.7h-10.4V19.7H169c9.6 0 17.4 7.8 17.4 17.4 0 9.6-7.8 17.4-17.4 17.4zM212.2 16.2V58c0 1.9 1.6 3.5 3.5 3.5h29v-7h-25.5V40.6h16.2v-7h-16.2V19.7h25.5v-7h-29c-1.9.1-3.5 1.6-3.5 3.5zM317.6 16.2V58c0 1.9 1.6 3.5 3.5 3.5h29v-7h-25.5V40.6h16.2v-7h-16.2V19.7h25.5v-7h-29c-2 .1-3.5 1.6-3.5 3.5zM284.4 12.8h-15.1c-1.9 0-3.5 1.6-3.5 3.5v45.2h7V40.6h11.6c7.7 0 13.9-6.2 13.9-13.9.1-7.7-6.2-13.9-13.9-13.9zm0 20.8h-11.6V19.7h11.6c3.8 0 7 3.1 7 7s-3.1 7-7 6.9zM404.5 12.8v35.6L375.8 14c-.9-1.1-2.5-1.5-3.9-1s-2.3 1.8-2.3 3.3v45.2h7V25.9l28.7 34.4c.7.8 1.7 1.2 2.7 1.2.4 0 .8-.1 1.2-.2 1.4-.5 2.3-1.8 2.3-3.3V12.8h-7zM131.8 25.3c0-.1 0-.2-.1-.3 0-.1 0-.1-.1-.2 0-.1-.1-.2-.1-.2 0-.1 0-.1-.1-.2 0-.1-.1-.1-.1-.2s-.1-.1-.1-.1c0-.1-.1-.1-.1-.2l-.1-.1-.2-.2-.1-.1-.2-.2-.1-.1h-.1L96.5.5C95.4-.2 94-.2 93 .5L59 23.2h-.1l-.1.1c-.1 0-.1.1-.2.1l-.1.1-.2.2-.1.1c0 .1-.1.1-.1.2l-.1.1c0 .1-.1.1-.1.2s0 .1-.1.2c0 .1-.1.2-.1.2v.1c0 .1 0 .2-.1.3v23.6c0 .1 0 .2.1.3v.2c0 .1 0 .2.1.2 0 0 0 .1.1.2 0 .1.1.1.1.2l.1.1c0 .1.1.1.1.2l.1.1.2.2.1.1c.1 0 .1.1.2.2l.1.1L93 73.7c.5.4 1.2.5 1.8.5s1.2-.2 1.8-.5l33.9-22.6h.1c.1 0 .1-.1.1-.1.1 0 .1-.1.2-.2l.1-.1.2-.2.1-.1c0-.1.1-.1.1-.2l.1-.1c0-.1.1-.1.1-.2s0-.1.1-.2c0-.1.1-.2.1-.2 0-.1 0-.1.1-.2 0-.1 0-.2.1-.3v-.1V25.8v-.4c-.2 0-.2-.1-.2-.1zM94.7 44.7l-11.3-7.5 11.3-7.5 11.3 7.5-11.3 7.5zM91.6 24l-13.8 9.3-11.2-7.5 25-16.7V24zM72 37.1l-8 5.3V31.8l8 5.3zm5.7 3.9l13.8 9.3v14.9l-25-16.7L77.7 41zm20.2 9.2l13.8-9.3 11.2 7.5-25 16.7V50.2zm19.6-13.1l8-5.3v10.7l-8-5.4zm-5.7-3.8L97.9 24V9.2l25 16.7-11.1 7.4z"/></g></svg>